<svg width="107" height="19" viewBox="0 0 107 19" fill="none" xmlns="http://www.w3.org/2000/svg">
<path d="M9.30469 13.6875C9.30469 13.2891 9.25781 12.9375 9.16406 12.6328C9.07031 12.3203 8.90625 12.0391 8.67188 11.7891C8.4375 11.5391 8.10938 11.3008 7.6875 11.0742C7.26562 10.8477 6.73047 10.6172 6.08203 10.3828C5.37891 10.1328 4.74219 9.85547 4.17188 9.55078C3.60156 9.23828 3.11328 8.88281 2.70703 8.48438C2.30859 8.08594 2 7.62891 1.78125 7.11328C1.5625 6.59766 1.45312 6.00781 1.45312 5.34375C1.45312 4.67969 1.56641 4.06641 1.79297 3.50391C2.02734 2.94141 2.35547 2.45312 2.77734 2.03906C3.20703 1.61719 3.72266 1.28906 4.32422 1.05469C4.92578 0.820312 5.59766 0.703125 6.33984 0.703125C7.44922 0.703125 8.38281 0.949219 9.14062 1.44141C9.90625 1.92578 10.4844 2.5625 10.875 3.35156C11.2656 4.13281 11.4609 4.96875 11.4609 5.85938H9.30469C9.30469 5.21875 9.19922 4.65234 8.98828 4.16016C8.78516 3.66016 8.46484 3.26953 8.02734 2.98828C7.59766 2.69922 7.03516 2.55469 6.33984 2.55469C5.71484 2.55469 5.19922 2.67578 4.79297 2.91797C4.39453 3.16016 4.09766 3.48828 3.90234 3.90234C3.71484 4.31641 3.62109 4.78906 3.62109 5.32031C3.62109 5.67969 3.68359 6.00781 3.80859 6.30469C3.93359 6.59375 4.125 6.86328 4.38281 7.11328C4.64844 7.36328 4.97656 7.59375 5.36719 7.80469C5.76562 8.01562 6.23438 8.21875 6.77344 8.41406C7.60938 8.6875 8.32422 8.99219 8.91797 9.32812C9.51172 9.66406 9.99609 10.043 10.3711 10.4648C10.7461 10.8789 11.0195 11.3516 11.1914 11.8828C11.3711 12.4062 11.4609 13 11.4609 13.6641C11.4609 14.3594 11.3438 14.9883 11.1094 15.5508C10.8828 16.1133 10.5508 16.5938 10.1133 16.9922C9.67578 17.3906 9.14844 17.6992 8.53125 17.918C7.91406 18.1289 7.21875 18.2344 6.44531 18.2344C5.77344 18.2344 5.11328 18.125 4.46484 17.9062C3.82422 17.6875 3.24219 17.3594 2.71875 16.9219C2.19531 16.4844 1.77734 15.9453 1.46484 15.3047C1.15234 14.6562 0.996094 13.9062 0.996094 13.0547H3.15234C3.15234 13.6406 3.23828 14.1445 3.41016 14.5664C3.58203 14.9805 3.82031 15.3242 4.125 15.5977C4.42969 15.8711 4.77734 16.0742 5.16797 16.207C5.56641 16.332 5.99219 16.3945 6.44531 16.3945C7.07031 16.3945 7.59375 16.2852 8.01562 16.0664C8.44531 15.8477 8.76562 15.5352 8.97656 15.1289C9.19531 14.7227 9.30469 14.2422 9.30469 13.6875ZM22.3125 0.9375H24.4688V12.9492C24.4688 14.2305 24.2227 15.2578 23.7305 16.0312C23.2383 16.8047 22.5898 17.3672 21.7852 17.7188C20.9883 18.0625 20.1289 18.2344 19.207 18.2344C18.2227 18.2344 17.3359 18.0625 16.5469 17.7188C15.7578 17.3672 15.1289 16.8047 14.6602 16.0312C14.1992 15.2578 13.9688 14.2305 13.9688 12.9492V0.9375H16.1133V12.9492C16.1133 13.8398 16.2383 14.5352 16.4883 15.0352C16.7461 15.5352 17.1055 15.8867 17.5664 16.0898C18.0352 16.293 18.582 16.3945 19.207 16.3945C19.8398 16.3945 20.3867 16.293 20.8477 16.0898C21.3164 15.8867 21.6758 15.5352 21.9258 15.0352C22.1836 14.5352 22.3125 13.8398 22.3125 12.9492V0.9375ZM33.1992 11.3086H29.4727V9.46875H33.1992C33.9023 9.46875 34.4688 9.32812 34.8984 9.04688C35.3359 8.76562 35.6523 8.375 35.8477 7.875C36.0508 7.375 36.1523 6.80469 36.1523 6.16406C36.1523 5.57812 36.0508 5.02734 35.8477 4.51172C35.6523 3.99609 35.3359 3.58203 34.8984 3.26953C34.4688 2.94922 33.9023 2.78906 33.1992 2.78906H29.918V18H27.7617V0.9375H33.1992C34.3008 0.9375 35.2305 1.16016 35.9883 1.60547C36.7461 2.05078 37.3203 2.66797 37.7109 3.45703C38.1094 4.23828 38.3086 5.13281 38.3086 6.14062C38.3086 7.23438 38.1094 8.16797 37.7109 8.94141C37.3203 9.71484 36.7461 10.3047 35.9883 10.7109C35.2305 11.1094 34.3008 11.3086 33.1992 11.3086ZM50.25 16.1602V18H42.8438V16.1602H50.25ZM43.2305 0.9375V18H41.0742V0.9375H43.2305ZM49.2539 8.27344V10.1133H42.8438V8.27344H49.2539ZM50.1328 0.9375V2.78906H42.8438V0.9375H50.1328ZM53.0156 0.9375H57.7852C58.8945 0.9375 59.8242 1.13281 60.5742 1.52344C61.332 1.91406 61.9023 2.49219 62.2852 3.25781C62.6758 4.01563 62.8711 4.94922 62.8711 6.05859C62.8711 6.83984 62.7422 7.55469 62.4844 8.20312C62.2266 8.84375 61.8516 9.39062 61.3594 9.84375C60.8672 10.2891 60.2695 10.6211 59.5664 10.8398L58.9805 11.0859H54.7266L54.7031 9.24609H57.7617C58.418 9.24609 58.9648 9.10547 59.4023 8.82422C59.8398 8.53516 60.168 8.14844 60.3867 7.66406C60.6055 7.17969 60.7148 6.64453 60.7148 6.05859C60.7148 5.40234 60.6172 4.82812 60.4219 4.33594C60.2266 3.84375 59.9141 3.46484 59.4844 3.19922C59.0625 2.92578 58.4961 2.78906 57.7852 2.78906H55.1719V18H53.0156V0.9375ZM61.207 18L57.8086 10.2656L60.0469 10.2539L63.5156 17.8594V18H61.207ZM76.4414 9.50391V15.8672C76.2539 16.1172 75.9688 16.4297 75.5859 16.8047C75.2109 17.1797 74.6836 17.5117 74.0039 17.8008C73.3242 18.0898 72.4336 18.2344 71.332 18.2344C70.4492 18.2344 69.6406 18.0859 68.9062 17.7891C68.1797 17.4922 67.5508 17.0469 67.0195 16.4531C66.4961 15.8516 66.0898 15.1055 65.8008 14.2148C65.5117 13.3164 65.3672 12.2656 65.3672 11.0625V7.86328C65.3672 6.66797 65.4883 5.62109 65.7305 4.72266C65.9727 3.82422 66.332 3.07813 66.8086 2.48438C67.293 1.89062 67.8906 1.44531 68.6016 1.14844C69.3203 0.851563 70.1562 0.703125 71.1094 0.703125C72.2109 0.703125 73.1484 0.910156 73.9219 1.32422C74.6953 1.73828 75.293 2.33594 75.7148 3.11719C76.1445 3.89844 76.3867 4.83594 76.4414 5.92969H74.2852C74.2305 5.22656 74.082 4.625 73.8398 4.125C73.5977 3.61719 73.2539 3.23047 72.8086 2.96484C72.3633 2.69141 71.7969 2.55469 71.1094 2.55469C70.4531 2.55469 69.8984 2.66406 69.4453 2.88281C68.9922 3.10156 68.6211 3.42969 68.332 3.86719C68.0508 4.30469 67.8438 4.85547 67.7109 5.51953C67.5859 6.18359 67.5234 6.95703 67.5234 7.83984V11.0625C67.5234 11.9688 67.6133 12.7578 67.793 13.4297C67.9727 14.1016 68.2266 14.6562 68.5547 15.0938C68.8906 15.5312 69.293 15.8594 69.7617 16.0781C70.2305 16.2891 70.7578 16.3945 71.3438 16.3945C72.0078 16.3945 72.5312 16.3242 72.9141 16.1836C73.2969 16.043 73.5898 15.8828 73.793 15.7031C74.0039 15.5234 74.1719 15.3789 74.2969 15.2695V11.332H71.168V9.50391H76.4414ZM80.8945 0.9375L84.375 9.50391L87.8672 0.9375H90.3047L85.4531 11.625V18H83.2969V11.625L78.4453 0.9375H80.8945ZM93.2227 0.9375H95.3086L99.7734 14.8477L104.227 0.9375H106.312L100.582 18H98.9414L93.2227 0.9375ZM92.543 0.9375H94.3711L94.6875 11.3438V18H92.543V0.9375ZM105.152 0.9375H106.98V18H104.836V11.3438L105.152 0.9375Z" fill="white"/>
</svg>
