<svg width="25" height="25" viewBox="0 0 25 25" fill="none" xmlns="http://www.w3.org/2000/svg">
<path d="M13.4727 15.3301C13.9154 15.187 14.4822 16.2747 15.0855 16.691C15.5384 17.0063 15.8852 16.9383 15.8852 16.9383L17.4934 16.9151C17.4934 16.9151 18.3338 16.8632 17.9365 16.1955C17.9036 16.14 17.7036 15.7005 16.7395 14.7962C15.7315 13.8502 15.8681 14.0034 17.0817 12.3679C17.8212 11.371 18.1171 10.7621 18.0245 10.5028C17.9356 10.2532 17.3924 10.318 17.3924 10.318L15.5805 10.3305C15.4041 10.331 15.2545 10.3856 15.1865 10.569C15.1851 10.5708 14.8989 11.3404 14.5174 11.9947C13.7112 13.3788 13.3894 13.4524 13.256 13.3658C12.9499 13.1653 13.0273 12.5615 13.0273 12.1322C13.0273 10.7908 13.2273 10.2314 12.6355 10.0869C12.4378 10.0388 12.2933 10.0073 11.7891 10.0027C11.1445 9.99295 10.5972 10.0027 10.2869 10.155C10.0809 10.2583 9.92296 10.4847 10.0188 10.4977C10.1392 10.5139 10.4092 10.5718 10.5536 10.769C10.7393 11.0246 10.7338 11.5974 10.7338 11.5974C10.7338 11.5974 10.8398 13.1769 10.4837 13.3728C10.2392 13.507 9.9049 13.2329 9.18578 11.9762C8.81858 11.3335 8.54121 10.6232 8.54121 10.6232C8.54121 10.6232 8.4875 10.4912 8.39026 10.419C8.27449 10.3333 8.11243 10.306 8.11243 10.306L6.39265 10.3171C6.39265 10.3171 6.13427 10.3245 6.03935 10.4384C5.95507 10.5393 6.0324 10.7477 6.0324 10.7477C6.0324 10.7477 7.37942 13.934 8.90471 15.5389C10.3031 17.0123 11.8923 16.9146 11.8923 16.9146H12.6124C12.6124 16.9146 12.8295 16.8896 12.9407 16.7702C13.0444 16.659 13.0398 16.4502 13.0398 16.4502C13.0398 16.4502 13.0254 15.4736 13.4727 15.3301Z" fill="currentColor"/>
</svg>
