<svg width="25" height="25" viewBox="0 0 25 25" fill="none" xmlns="http://www.w3.org/2000/svg">
<path d="M12.4146 7.38024C13.3131 7.38024 14.0438 8.13455 14.0438 9.06206C14.0438 9.98678 13.3131 10.7411 12.4146 10.7411C11.5161 10.7411 10.7854 9.98678 10.7854 9.06206C10.7854 8.13455 11.5161 7.38024 12.4146 7.38024ZM12.4146 13.1213C14.5851 13.1213 16.3496 11.2998 16.3496 9.06206C16.3496 6.8215 14.5851 5 12.4146 5C10.2442 5 8.48237 6.8215 8.48237 9.06206C8.48237 11.2998 10.2442 13.1213 12.4146 13.1213ZM14.0059 16.4347C14.807 16.2447 15.5783 15.9178 16.2901 15.4569C16.8286 15.1077 16.991 14.3729 16.6527 13.817C16.3117 13.2582 15.6027 13.0906 15.0614 13.4426C13.4512 14.4875 11.3781 14.4875 9.76516 13.4426C9.22661 13.0906 8.51485 13.2582 8.17656 13.817C7.83827 14.3729 8.00065 15.1077 8.53921 15.4569C9.25096 15.9178 10.0223 16.2447 10.8233 16.4347L8.6231 18.7032C8.17385 19.1669 8.17385 19.9212 8.6231 20.385C8.85043 20.6169 9.14271 20.7342 9.4377 20.7342C9.73269 20.7342 10.0277 20.6169 10.255 20.385L12.4146 18.1556L14.577 20.385C15.0262 20.8515 15.7542 20.8515 16.2062 20.385C16.6554 19.9212 16.6554 19.1669 16.2062 18.7032L14.0059 16.4347Z" fill="currentColor"/>
</svg>
