<svg width="25" height="25" viewBox="0 0 25 25" fill="none" xmlns="http://www.w3.org/2000/svg">
<path d="M13.2953 6C12.85 6 12.432 6.22593 12.164 6.55175C11.8959 6.87757 11.7481 7.27473 11.6405 7.6933C11.4695 8.36634 11.4167 9.11311 11.4041 9.78615C10.1524 9.86939 9.0189 10.2404 8.07749 10.8135C7.69544 10.4925 7.23529 10.3141 6.79414 10.3189C6.29177 10.3236 5.81473 10.54 5.46012 10.9848C4.78256 11.8338 4.86066 13.2227 5.64587 14.0479C5.59732 14.3024 5.56144 14.564 5.56144 14.828C5.56144 17.6248 8.41944 19.8889 11.9444 19.8889C15.4695 19.8889 18.3274 17.6224 18.3274 14.828C18.3274 14.564 18.2916 14.3024 18.243 14.0479C19.0282 13.2227 19.1063 11.8338 18.4288 10.9848C18.0742 10.54 17.5971 10.3236 17.0948 10.3189C16.6536 10.3141 16.1934 10.4925 15.8114 10.8135C14.8742 10.2428 13.7471 9.87177 12.5017 9.78615C12.5186 9.16543 12.5629 8.52093 12.6874 8.03577C12.7655 7.73135 12.8584 7.51018 12.9576 7.38889C13.0568 7.2676 13.1286 7.21766 13.2953 7.21766C13.6563 7.21766 13.7027 7.33419 13.9201 7.6172C14.0299 7.75989 14.1565 7.93826 14.3592 8.11187C14.5618 8.28548 14.8615 8.43531 15.1866 8.43531V7.21766C15.0958 7.21766 15.079 7.21528 15.0177 7.16058C14.9565 7.10588 14.8721 6.97983 14.7476 6.81811C14.4985 6.49229 14.0151 6 13.2953 6ZM16.8077 6.11416C15.9676 6.11416 15.2879 6.87995 15.2879 7.82648C15.2879 8.77302 15.9676 9.53881 16.8077 9.53881C17.6478 9.53881 18.3274 8.77302 18.3274 7.82648C18.3274 6.87995 17.6478 6.11416 16.8077 6.11416ZM16.8077 6.72298C17.348 6.72298 17.7871 7.21766 17.7871 7.82648C17.7871 8.43531 17.348 8.92998 16.8077 8.92998C16.2673 8.92998 15.8283 8.43531 15.8283 7.82648C15.8283 7.21766 16.2673 6.72298 16.8077 6.72298ZM11.9444 10.7374C14.9354 10.7374 17.4663 12.6139 17.4663 14.828C17.4663 17.0445 14.9354 18.9186 11.9444 18.9186C8.95347 18.9186 6.42264 17.0445 6.42264 14.828C6.42264 12.6139 8.95347 10.7374 11.9444 10.7374ZM6.81102 11.2892C6.96089 11.2916 7.11709 11.3296 7.26695 11.4033C6.72448 11.8671 6.29388 12.3998 6.00048 13.0015C5.79785 12.5306 5.85273 11.9432 6.1018 11.6317C6.28333 11.4033 6.53451 11.2868 6.81102 11.2892ZM17.0779 11.2892C17.3544 11.2868 17.6056 11.4033 17.7871 11.6317C18.0362 11.9432 18.091 12.5306 17.8884 13.0015C17.595 12.3998 17.1644 11.8671 16.6219 11.4033C16.7718 11.3296 16.928 11.2916 17.0779 11.2892ZM9.783 12.8113C9.24264 12.8113 8.8036 13.3059 8.8036 13.9148C8.8036 14.5236 9.24264 15.0183 9.783 15.0183C10.3234 15.0183 10.7624 14.5236 10.7624 13.9148C10.7624 13.3059 10.3234 12.8113 9.783 12.8113ZM14.1059 12.8113C13.5655 12.8113 13.1265 13.3059 13.1265 13.9148C13.1265 14.5236 13.5655 15.0183 14.1059 15.0183C14.6462 15.0183 15.0853 14.5236 15.0853 13.9148C15.0853 13.3059 14.6462 12.8113 14.1059 12.8113ZM9.25953 16.5594C9.60359 17.3608 10.6674 18.1385 11.9444 18.1385C13.2215 18.1385 14.3022 17.3608 14.6462 16.5594C14.0215 17.0136 13.0357 17.3204 11.9444 17.3204C10.8532 17.3204 9.88432 17.0136 9.25953 16.5594Z" fill="currentColor"/>
</svg>
