<svg width="25" height="25" fill="none" xmlns="http://www.w3.org/2000/svg"><path d="M13.473 15.33c.442-.143 1.01.945 1.612 1.361.453.315.8.247.8.247l1.608-.023s.84-.052.444-.72c-.033-.055-.233-.495-1.198-1.399-1.008-.946-.87-.793.343-2.428.74-.997 1.035-1.606.942-1.865-.088-.25-.632-.185-.632-.185l-1.811.013c-.177 0-.326.055-.394.238-.002.002-.288.771-.67 1.426-.806 1.384-1.128 1.457-1.261 1.37-.306-.2-.229-.803-.229-1.233 0-1.341.2-1.9-.391-2.045-.198-.048-.343-.08-.847-.084-.644-.01-1.192 0-1.502.152-.206.103-.364.33-.268.343.12.016.39.074.535.271.185.256.18.828.18.828s.106 1.58-.25 1.776c-.245.134-.58-.14-1.298-1.397-.367-.643-.645-1.353-.645-1.353s-.053-.132-.15-.204a.745.745 0 0 0-.279-.113l-1.72.011s-.258.008-.353.121c-.084.101-.007.31-.007.31s1.347 3.186 2.873 4.79c1.398 1.474 2.987 1.377 2.987 1.377h.72s.217-.025.329-.145c.103-.111.099-.32.099-.32s-.015-.976.433-1.12Z" fill="currentColor"/></svg>