<svg width="25" height="25" fill="none" xmlns="http://www.w3.org/2000/svg"><path d="M12.415 7.38c.898 0 1.629.755 1.629 1.682 0 .925-.73 1.68-1.63 1.68-.898 0-1.629-.755-1.629-1.68 0-.927.731-1.682 1.63-1.682Zm0 5.741c2.17 0 3.935-1.821 3.935-4.059C16.35 6.822 14.585 5 12.415 5S8.482 6.822 8.482 9.062c0 2.238 1.762 4.06 3.933 4.06Zm1.59 3.314a7.294 7.294 0 0 0 2.285-.978c.539-.35.701-1.084.363-1.64a1.13 1.13 0 0 0-1.592-.374 4.866 4.866 0 0 1-5.296 0 1.127 1.127 0 0 0-1.588.374 1.213 1.213 0 0 0 .362 1.64c.712.46 1.483.788 2.284.978l-2.2 2.268a1.218 1.218 0 0 0 0 1.682c.227.232.52.35.815.35.295 0 .59-.118.817-.35l2.16-2.23 2.162 2.23c.45.466 1.177.466 1.63 0 .448-.464.448-1.218 0-1.682l-2.201-2.268Z" fill="currentColor"/></svg>