<svg width="25" height="25" fill="none" xmlns="http://www.w3.org/2000/svg"><path d="M13.295 6c-.445 0-.863.226-1.131.552-.268.326-.416.723-.524 1.141-.17.673-.223 1.42-.236 2.093a7.318 7.318 0 0 0-3.327 1.027c-.382-.32-.842-.499-1.283-.494-.502.005-.98.221-1.334.666-.677.849-.6 2.238.186 3.063a4.173 4.173 0 0 0-.085.78c0 2.797 2.858 5.06 6.383 5.06s6.383-2.266 6.383-5.06c0-.264-.035-.526-.084-.78.785-.825.863-2.214.186-3.063a1.696 1.696 0 0 0-1.334-.666c-.441-.005-.902.173-1.284.494a7.314 7.314 0 0 0-3.31-1.027c.018-.62.062-1.265.186-1.75.079-.305.171-.526.27-.647.1-.121.172-.171.338-.171.361 0 .408.116.625.4.11.142.236.32.44.494.202.173.502.323.827.323V7.218c-.091 0-.108-.003-.17-.057-.06-.055-.145-.181-.27-.343C14.5 6.492 14.016 6 13.296 6Zm3.513.114c-.84 0-1.52.766-1.52 1.712 0 .947.68 1.713 1.52 1.713s1.52-.766 1.52-1.713c0-.946-.68-1.712-1.52-1.712Zm0 .609c.54 0 .98.495.98 1.103 0 .61-.44 1.104-.98 1.104s-.98-.495-.98-1.104c0-.608.44-1.103.98-1.103Zm-4.864 4.014c2.991 0 5.522 1.877 5.522 4.091 0 2.216-2.53 4.09-5.522 4.09-2.99 0-5.521-1.873-5.521-4.09 0-2.214 2.53-4.09 5.521-4.09Zm-5.133.552c.15.003.306.04.456.114A4.986 4.986 0 0 0 6 13.001c-.202-.47-.147-1.058.102-1.37a.876.876 0 0 1 .709-.342Zm10.267 0a.876.876 0 0 1 .71.343c.248.311.303.899.1 1.37a4.986 4.986 0 0 0-1.266-1.599c.15-.073.306-.111.456-.114Zm-7.295 1.522c-.54 0-.98.495-.98 1.104 0 .609.44 1.103.98 1.103s.98-.494.98-1.103c0-.61-.44-1.104-.98-1.104Zm4.323 0c-.54 0-.98.495-.98 1.104 0 .609.44 1.103.98 1.103s.98-.494.98-1.103c0-.61-.44-1.104-.98-1.104ZM9.26 16.56c.344.802 1.407 1.58 2.684 1.58 1.277 0 2.358-.778 2.702-1.58-.625.455-1.61.761-2.702.761-1.09 0-2.06-.306-2.684-.76Z" fill="currentColor"/></svg>