<svg width="107" height="19" fill="none" xmlns="http://www.w3.org/2000/svg"><path d="M9.305 13.688c0-.399-.047-.75-.14-1.055a2.108 2.108 0 0 0-.493-.844c-.235-.25-.563-.488-.985-.715a12.281 12.281 0 0 0-1.605-.691c-.703-.25-1.34-.528-1.91-.832a6.615 6.615 0 0 1-1.465-1.067 4.293 4.293 0 0 1-.926-1.37c-.218-.516-.328-1.106-.328-1.77 0-.664.113-1.278.34-1.84a4.4 4.4 0 0 1 .984-1.465 4.52 4.52 0 0 1 1.547-.984C4.926.82 5.598.703 6.34.703c1.11 0 2.043.246 2.8.738a4.69 4.69 0 0 1 1.735 1.91c.39.782.586 1.618.586 2.508H9.305c0-.64-.106-1.207-.317-1.699-.203-.5-.523-.89-.96-1.172-.43-.289-.993-.433-1.688-.433-.625 0-1.14.12-1.547.363-.398.242-.695.57-.89.984-.188.414-.282.887-.282 1.418 0 .36.063.688.188.985.125.289.316.558.574.808.265.25.594.48.984.692.399.21.867.414 1.406.61.836.273 1.551.577 2.145.913.594.336 1.078.715 1.453 1.137.375.414.649.887.82 1.418.18.523.27 1.117.27 1.781 0 .695-.117 1.324-.352 1.887a3.885 3.885 0 0 1-.996 1.441 4.6 4.6 0 0 1-1.582.926c-.617.21-1.312.316-2.086.316-.672 0-1.332-.109-1.98-.328a5.443 5.443 0 0 1-1.746-.984 4.848 4.848 0 0 1-1.254-1.617c-.313-.649-.469-1.399-.469-2.25h2.156c0 .586.086 1.09.258 1.511.172.414.41.758.715 1.032.305.273.652.476 1.043.609.398.125.824.188 1.277.188.625 0 1.149-.11 1.57-.329.43-.218.75-.53.962-.937.218-.406.328-.887.328-1.441ZM22.313.938h2.156v12.011c0 1.281-.246 2.309-.739 3.082-.492.774-1.14 1.336-1.945 1.688a6.44 6.44 0 0 1-2.578.515c-.984 0-1.871-.172-2.66-.515-.79-.352-1.418-.914-1.887-1.688-.46-.773-.691-1.8-.691-3.082V.938h2.144v12.011c0 .89.125 1.586.375 2.086.258.5.617.852 1.078 1.055.47.203 1.016.305 1.641.305.633 0 1.18-.102 1.64-.305.47-.203.829-.555 1.079-1.055.258-.5.387-1.195.387-2.086V.938Zm10.886 10.37h-3.726v-1.84h3.726c.703 0 1.27-.14 1.7-.421.437-.281.753-.672.949-1.172.203-.5.304-1.07.304-1.71 0-.587-.101-1.138-.304-1.653a2.64 2.64 0 0 0-.95-1.242c-.43-.32-.996-.48-1.699-.48h-3.281V18h-2.156V.937h5.437c1.102 0 2.032.223 2.79.668a4.333 4.333 0 0 1 1.722 1.852c.398.781.598 1.676.598 2.684 0 1.093-.2 2.027-.598 2.8a4.012 4.012 0 0 1-1.723 1.77c-.758.398-1.687.598-2.789.598ZM50.25 16.16V18h-7.406v-1.84h7.406ZM43.23.937V18h-2.156V.937h2.157Zm6.024 7.336v1.84h-6.41v-1.84h6.41Zm.879-7.335v1.851h-7.29V.937h7.29Zm2.883 0h4.77c1.108 0 2.038.195 2.788.585a3.83 3.83 0 0 1 1.711 1.735c.39.758.586 1.691.586 2.8 0 .782-.129 1.497-.387 2.145a4.462 4.462 0 0 1-1.125 1.64c-.492.446-1.09.778-1.793.997l-.586.246h-4.253l-.024-1.84h3.059c.656 0 1.203-.14 1.64-.422.438-.289.766-.676.985-1.16.218-.484.328-1.02.328-1.605 0-.657-.098-1.23-.293-1.723a2.287 2.287 0 0 0-.938-1.137c-.422-.273-.988-.41-1.699-.41h-2.613V18h-2.156V.937ZM61.207 18l-3.398-7.734 2.238-.012 3.469 7.605V18h-2.309Zm15.234-8.496v6.363c-.187.25-.472.563-.855.938-.375.375-.902.707-1.582.996-.68.289-1.57.433-2.672.433-.883 0-1.691-.148-2.426-.445a5.083 5.083 0 0 1-1.887-1.336c-.523-.601-.93-1.348-1.218-2.238-.29-.899-.434-1.95-.434-3.152v-3.2c0-1.195.121-2.242.364-3.14.242-.899.601-1.645 1.078-2.239a4.532 4.532 0 0 1 1.793-1.336c.718-.296 1.554-.445 2.507-.445 1.102 0 2.04.207 2.813.621a4.312 4.312 0 0 1 1.793 1.793c.43.781.672 1.719.726 2.813h-2.156c-.054-.703-.203-1.305-.445-1.805a2.625 2.625 0 0 0-1.031-1.16c-.446-.274-1.012-.41-1.7-.41-.656 0-1.21.11-1.664.328a2.752 2.752 0 0 0-1.113.984c-.281.438-.488.988-.621 1.653-.125.664-.188 1.437-.188 2.32v3.223c0 .906.09 1.695.27 2.367.18.672.434 1.226.762 1.664.336.437.738.765 1.207.984.469.211.996.317 1.582.317.664 0 1.187-.07 1.57-.211s.676-.301.879-.48c.21-.18.379-.325.504-.434v-3.938h-3.129V9.504h5.273ZM80.894.938l3.481 8.566L87.867.938h2.438l-4.852 10.687V18h-2.156v-6.375L78.445.937h2.45Zm12.329 0h2.086l4.464 13.91 4.454-13.91h2.085L100.582 18h-1.64L93.221.937Zm-.68 0h1.828l.317 10.406V18h-2.145V.937Zm12.609 0h1.828V18h-2.144v-6.656l.316-10.406Z" fill="#fff"/></svg>