<svg width="119" height="20" fill="none" xmlns="http://www.w3.org/2000/svg"><path d="M9.318 14.138c0-.33-.03-.63-.089-.902-.059-.27-.186-.52-.38-.749-.187-.228-.462-.457-.826-.685a9.58 9.58 0 0 0-1.396-.711 33.086 33.086 0 0 1-1.993-.914 9.366 9.366 0 0 1-1.74-1.143 4.962 4.962 0 0 1-1.23-1.523c-.297-.593-.445-1.287-.445-2.082 0-.779.14-1.486.419-2.12a4.621 4.621 0 0 1 1.218-1.625A5.564 5.564 0 0 1 4.697.63C5.408.384 6.2.262 7.071.262c1.185 0 2.21.245 3.073.736a5.144 5.144 0 0 1 2.018 2.019c.482.854.724 1.836.724 2.945H9.179c0-.525-.076-.986-.229-1.384a1.916 1.916 0 0 0-.698-.952c-.322-.229-.736-.343-1.244-.343-.474 0-.868.098-1.18.292a1.742 1.742 0 0 0-.686.775 2.646 2.646 0 0 0-.216 1.091c0 .305.072.58.216.826.152.237.36.452.622.647.262.186.571.368.926.546.364.178.762.351 1.194.52.838.33 1.578.694 2.221 1.092.644.39 1.181.83 1.613 1.32a4.96 4.96 0 0 1 .977 1.638c.22.61.33 1.304.33 2.082 0 .77-.135 1.473-.406 2.108a4.5 4.5 0 0 1-1.155 1.625c-.508.448-1.122.795-1.841 1.04-.71.246-1.506.369-2.387.369a8.117 8.117 0 0 1-2.424-.356 5.925 5.925 0 0 1-2.019-1.104c-.576-.5-1.028-1.13-1.358-1.892-.33-.77-.496-1.68-.496-2.73h3.72c0 .56.055 1.038.165 1.435.11.39.28.703.508.94.229.228.508.402.838.52.338.11.724.165 1.155.165.491 0 .88-.093 1.168-.279a1.56 1.56 0 0 0 .635-.749c.127-.313.19-.668.19-1.066ZM23.842.516h3.707V13.21c0 1.422-.262 2.581-.787 3.478a4.658 4.658 0 0 1-2.146 1.956c-.914.406-1.96.609-3.136.609-1.184 0-2.238-.203-3.16-.61a4.647 4.647 0 0 1-2.159-1.954c-.508-.898-.762-2.057-.762-3.48V.517h3.707V13.21c0 .804.09 1.422.267 1.854.186.431.453.727.8.888.355.152.791.229 1.308.229.524 0 .956-.076 1.294-.229.347-.16.61-.457.788-.888.186-.432.279-1.05.279-1.854V.516ZM36.69 12.487h-3.784V9.402h3.784c.524 0 .952-.118 1.282-.355a2 2 0 0 0 .736-.978c.152-.423.229-.897.229-1.422 0-.533-.08-1.028-.242-1.485a2.487 2.487 0 0 0-.723-1.13c-.322-.288-.75-.431-1.282-.431H34.1V19h-3.707V.516h6.297c1.244 0 2.314.262 3.211.787a5.242 5.242 0 0 1 2.057 2.17c.482.915.724 1.964.724 3.15 0 1.192-.242 2.23-.724 3.11a4.957 4.957 0 0 1-2.057 2.03c-.897.483-1.967.724-3.212.724Zm19.08 3.44V19h-8.036v-3.072h8.036ZM48.89.517V19h-3.72V.516h3.72Zm5.801 7.49v2.983h-6.957V8.006h6.957Zm1.054-7.49V3.6h-8.01V.516h8.01Zm2.21 0h5.928c1.235 0 2.29.211 3.16.634a4.492 4.492 0 0 1 2.007 1.88c.465.829.698 1.853.698 3.072 0 .998-.135 1.853-.406 2.564a4.744 4.744 0 0 1-1.156 1.765 5.73 5.73 0 0 1-1.79 1.117l-1.13.673h-4.81l-.014-3.085h3.34c.507 0 .926-.11 1.256-.33.339-.229.588-.546.75-.952.168-.415.253-.898.253-1.448 0-.584-.076-1.083-.228-1.498-.144-.423-.377-.745-.699-.965-.313-.228-.723-.342-1.231-.342h-2.21V19h-3.719V.516ZM66.344 19l-3.389-8.24 3.897-.012 3.466 8.074V19h-3.973Zm18.549-9.712v7.617c-.263.28-.648.605-1.156.978-.5.364-1.155.685-1.968.965-.803.27-1.785.406-2.945.406-1.024 0-1.955-.16-2.793-.483a5.667 5.667 0 0 1-2.145-1.46c-.593-.66-1.046-1.48-1.359-2.462-.313-.99-.47-2.163-.47-3.517V8.184c0-1.338.149-2.501.445-3.492.305-.998.745-1.828 1.32-2.488A5.364 5.364 0 0 1 75.88.731C76.684.41 77.59.25 78.597.25c1.388 0 2.526.233 3.415.698a4.579 4.579 0 0 1 2.031 2.07c.465.914.745 2.035.838 3.364h-3.593c-.06-.779-.19-1.388-.394-1.828-.194-.44-.47-.754-.825-.94-.355-.194-.816-.292-1.383-.292-.491 0-.919.09-1.283.267-.364.17-.668.448-.914.838-.245.39-.427.888-.546 1.498-.118.61-.177 1.354-.177 2.234v3.174c0 .872.067 1.617.203 2.234.135.618.334 1.122.596 1.511.271.39.61.673 1.016.85.415.17.901.255 1.46.255.449 0 .808-.047 1.08-.14.27-.093.486-.19.647-.292.169-.11.308-.195.418-.254v-3.402h-2.653V9.288h6.36Zm5.42-8.772 2.819 8.328L95.926.516h4.05l-4.977 11.768V19h-3.745v-6.716L86.277.516h4.037Zm12.696 0h3.262l3.771 12.644L113.801.516h2.882L111.427 19h-2.781L103.01.516Zm-1.321 0h3.111l.482 12.187V19h-3.593V.516Zm13.572 0h3.123V19h-3.58v-6.297l.457-12.187Z" fill="#fff"/></svg>